<svg xmlns="http://www.w3.org/2000/svg" viewBox="0 0 40 40" width="40" height="40" fill="none">
  <defs>
    <linearGradient id="bg" x1="0" y1="0" x2="0" y2="1">
      <stop offset="0%" stop-color="#fb923c"/>
      <stop offset="100%" stop-color="#ea580c"/>
    </linearGradient>
  </defs>
  <rect width="40" height="40" rx="9" fill="url(#bg)"/>
  <line x1="20" y1="20" x2="20"   y2="7"    stroke="white" stroke-width="1.5" stroke-linecap="round" opacity="0.9"/>
  <line x1="20" y1="20" x2="31.3" y2="13.5" stroke="white" stroke-width="1.5" stroke-linecap="round" opacity="0.9"/>
  <line x1="20" y1="20" x2="31.3" y2="26.5" stroke="white" stroke-width="1.5" stroke-linecap="round" opacity="0.9"/>
  <line x1="20" y1="20" x2="20"   y2="33"   stroke="white" stroke-width="1.5" stroke-linecap="round" opacity="0.9"/>
  <line x1="20" y1="20" x2="8.7"  y2="26.5" stroke="white" stroke-width="1.5" stroke-linecap="round" opacity="0.9"/>
  <line x1="20" y1="20" x2="8.7"  y2="13.5" stroke="white" stroke-width="1.5" stroke-linecap="round" opacity="0.9"/>
  <polygon points="20,7 31.3,13.5 31.3,26.5 20,33 8.7,26.5 8.7,13.5"
           stroke="rgba(255,255,255,0.35)" stroke-width="1"/>
  <circle cx="20"  cy="7"    r="2.4" fill="white"/>
  <circle cx="31.3" cy="13.5" r="2.4" fill="white"/>
  <circle cx="31.3" cy="26.5" r="2.4" fill="white"/>
  <circle cx="20"  cy="33"   r="2.4" fill="white"/>
  <circle cx="8.7" cy="26.5" r="2.4" fill="white"/>
  <circle cx="8.7" cy="13.5" r="2.4" fill="white"/>
  <circle cx="20" cy="20" r="4.5" fill="white"/>
  <circle cx="20" cy="20" r="2"   fill="#ea580c"/>
</svg>